<mxfile host="app.diagrams.net" modified="2023-12-29T16:12:32.606Z" agent="Mozilla/5.0 (Windows NT 10.0; Win64; x64) AppleWebKit/537.36 (KHTML, like Gecko) Chrome/120.0.0.0 Safari/537.36" etag="0wCJbgLucPk1nd-iRuAn" version="22.1.16" type="device">
  <diagram name="Page-1" id="b5b7bab2-c9e2-2cf4-8b2a-24fd1a2a6d21">
    <mxGraphModel dx="1018" dy="604" grid="1" gridSize="10" guides="1" tooltips="1" connect="1" arrows="1" fold="1" page="1" pageScale="1" pageWidth="827" pageHeight="1169" background="none" math="0" shadow="0">
      <root>
        <mxCell id="0" />
        <mxCell id="1" parent="0" />
        <mxCell id="LsQKSMoYAqqEck2Fieod-1" value="Tour" style="shape=module;align=left;spacingLeft=20;align=center;verticalAlign=top;whiteSpace=wrap;html=1;" vertex="1" parent="1">
          <mxGeometry x="350" y="200" width="100" height="50" as="geometry" />
        </mxCell>
        <mxCell id="LsQKSMoYAqqEck2Fieod-2" value="Client" style="shape=module;align=left;spacingLeft=20;align=center;verticalAlign=top;whiteSpace=wrap;html=1;" vertex="1" parent="1">
          <mxGeometry x="510" y="200" width="100" height="50" as="geometry" />
        </mxCell>
        <mxCell id="LsQKSMoYAqqEck2Fieod-3" value="Start" style="shape=module;align=left;spacingLeft=20;align=center;verticalAlign=top;whiteSpace=wrap;html=1;" vertex="1" parent="1">
          <mxGeometry x="680" y="200" width="100" height="50" as="geometry" />
        </mxCell>
        <mxCell id="LsQKSMoYAqqEck2Fieod-4" value="TravalAgent" style="shape=folder;fontStyle=1;spacingTop=10;tabWidth=40;tabHeight=14;tabPosition=left;html=1;whiteSpace=wrap;" vertex="1" parent="1">
          <mxGeometry x="40" y="90" width="260" height="190" as="geometry" />
        </mxCell>
        <mxCell id="LsQKSMoYAqqEck2Fieod-5" value="&amp;lt;&amp;lt;Colection&amp;gt;&amp;gt;&lt;br&gt;poolTourse" style="shape=module;align=left;spacingLeft=20;align=center;verticalAlign=top;whiteSpace=wrap;html=1;" vertex="1" parent="1">
          <mxGeometry x="115" y="200" width="100" height="50" as="geometry" />
        </mxCell>
        <mxCell id="LsQKSMoYAqqEck2Fieod-7" value="" style="endArrow=block;dashed=1;endFill=0;endSize=12;html=1;rounded=0;entryX=1;entryY=0.5;entryDx=0;entryDy=0;" edge="1" parent="1" source="LsQKSMoYAqqEck2Fieod-3" target="LsQKSMoYAqqEck2Fieod-2">
          <mxGeometry width="160" relative="1" as="geometry">
            <mxPoint x="440" y="470" as="sourcePoint" />
            <mxPoint x="600" y="470" as="targetPoint" />
          </mxGeometry>
        </mxCell>
        <mxCell id="LsQKSMoYAqqEck2Fieod-8" value="" style="endArrow=block;dashed=1;endFill=0;endSize=12;html=1;rounded=0;entryX=1;entryY=0.5;entryDx=0;entryDy=0;" edge="1" parent="1">
          <mxGeometry width="160" relative="1" as="geometry">
            <mxPoint x="510" y="225" as="sourcePoint" />
            <mxPoint x="450" y="224.77" as="targetPoint" />
          </mxGeometry>
        </mxCell>
        <mxCell id="LsQKSMoYAqqEck2Fieod-9" value="" style="endArrow=block;dashed=1;endFill=0;endSize=12;html=1;rounded=0;entryX=1.006;entryY=0.712;entryDx=0;entryDy=0;entryPerimeter=0;" edge="1" parent="1" target="LsQKSMoYAqqEck2Fieod-4">
          <mxGeometry width="160" relative="1" as="geometry">
            <mxPoint x="350" y="225" as="sourcePoint" />
            <mxPoint x="310" y="224.77" as="targetPoint" />
          </mxGeometry>
        </mxCell>
      </root>
    </mxGraphModel>
  </diagram>
</mxfile>
